# xmcd
#
# Track frame offsets: 
#        150
#        13899
#        21315
#        33571
#        48628
#        60279
#        77834
#        93435
#        107572
#        124612
#        138742
#        158837
#        177331
#        188201
#        207003
#        229066
#        244533
#        261593
#        275223
#        294022
#
# Disc length: 4158 seconds
#
# Revision: 1
# Processed by: cddbd v1.5.1PL2 Copyright (c) Steve Scherf et al.
# Submitted via: ExactAudioCopy v0.95a5
#
DISCID=1e103c14
DTITLE=Cat Stevens - Majikat Earth Tour 1976
DYEAR=2005
DGENRE=Folk/Rock
TTITLE0=Wild World
TTITLE1=The Wind
TTITLE2=Moonshadow
TTITLE3=Where Do the Children Play
TTITLE4=Another Saturday Night
TTITLE5=Hard Headed Woman
TTITLE6=King of Trees
TTITLE7=C79
TTITLE8=Lady D'Arbanville
TTITLE9=Banapple gas
TTITLE10=Majik of Majiks
TTITLE11=Tuesday's Dead
TTITLE12=Oh Very Young
TTITLE13=How Can I Tell You
TTITLE14=The Hurt
TTITLE15=Sad Lisa
TTITLE16=Two Fine People
TTITLE17=Fill My Eyes
TTITLE18=Father and Son
TTITLE19=Peace Train
EXTD=YEAR: 1976
EXTT0=
EXTT1=
EXTT2=
EXTT3=
EXTT4=
EXTT5=
EXTT6=
EXTT7=
EXTT8=
EXTT9=
EXTT10=
EXTT11=
EXTT12=
EXTT13=
EXTT14=
EXTT15=
EXTT16=
EXTT17=
EXTT18=
EXTT19=
PLAYORDER=
